<?xml version="1.0" encoding="UTF-8" standalone="no"?><!DOCTYPE svg PUBLIC "-//W3C//DTD SVG 1.1//EN" "http://www.w3.org/Graphics/SVG/1.1/DTD/svg11.dtd"><svg width="100%" height="100%" viewBox="0 0 223 42" version="1.1" xmlns="http://www.w3.org/2000/svg" xmlns:xlink="http://www.w3.org/1999/xlink" xml:space="preserve" xmlns:serif="http://www.serif.com/" style="fill-rule:evenodd;clip-rule:evenodd;stroke-linecap:round;stroke-linejoin:round;stroke-miterlimit:1.5;"><g><path d="M221.354,20.669c0,-10.804 -8.771,-19.575 -19.575,-19.575l-181.11,0c-10.804,0 -19.575,8.771 -19.575,19.575c0,10.803 8.771,19.575 19.575,19.575l181.11,0c10.804,0 19.575,-8.772 19.575,-19.575Z" style="fill:url(#_Linear1);stroke:#fff;stroke-width:2.19px;"/><path d="M36.308,20.669c0,-0.975 -0.156,-1.888 -0.467,-2.738c-0.312,-0.85 -0.754,-1.587 -1.327,-2.212c-0.574,-0.625 -1.265,-1.119 -2.075,-1.482c-0.81,-0.362 -1.726,-0.543 -2.748,-0.543c-1.022,0 -1.956,0.181 -2.804,0.543c-0.847,0.363 -1.582,0.857 -2.205,1.482c-0.623,0.625 -1.109,1.362 -1.458,2.212c-0.349,0.85 -0.524,1.763 -0.524,2.738c0,0.975 0.175,1.887 0.524,2.737c0.349,0.85 0.835,1.588 1.458,2.213c0.623,0.625 1.358,1.118 2.205,1.481c0.848,0.362 1.782,0.544 2.804,0.544c1.022,0 1.938,-0.182 2.748,-0.544c0.81,-0.363 1.501,-0.856 2.075,-1.481c0.573,-0.625 1.015,-1.363 1.327,-2.213c0.311,-0.85 0.467,-1.762 0.467,-2.737Zm-15.963,-19.575l2.468,0l0,13.725l0.074,0c0.399,-0.6 0.873,-1.113 1.421,-1.538c0.548,-0.425 1.121,-0.775 1.72,-1.05c0.598,-0.275 1.215,-0.475 1.85,-0.6c0.636,-0.125 1.24,-0.187 1.813,-0.187c1.371,0 2.623,0.231 3.757,0.693c1.134,0.463 2.112,1.107 2.935,1.932c0.822,0.825 1.464,1.8 1.925,2.925c0.461,1.125 0.692,2.35 0.692,3.675c0,1.325 -0.231,2.55 -0.692,3.675c-0.461,1.125 -1.103,2.1 -1.925,2.925c-0.823,0.825 -1.801,1.468 -2.935,1.931c-1.134,0.462 -2.386,0.694 -3.757,0.694c-0.573,0 -1.177,-0.063 -1.813,-0.188c-0.635,-0.125 -1.252,-0.325 -1.85,-0.6c-0.599,-0.275 -1.172,-0.625 -1.72,-1.05c-0.548,-0.425 -1.022,-0.937 -1.421,-1.537l-0.074,0l0,2.925l-2.468,0l0,-28.35Z" style="fill:#fff;fill-rule:nonzero;stroke:#fff;stroke-width:2.19px;stroke-linecap:butt;stroke-miterlimit:2;"/><path d="M56.794,19.319c0,-1.675 -0.498,-3.032 -1.495,-4.069c-0.997,-1.038 -2.393,-1.556 -4.187,-1.556c-0.798,0 -1.57,0.156 -2.318,0.468c-0.748,0.313 -1.402,0.732 -1.963,1.257c-0.56,0.525 -1.009,1.125 -1.345,1.8c-0.337,0.675 -0.505,1.375 -0.505,2.1l11.813,0Zm-11.888,2.025c0.075,0.875 0.287,1.7 0.636,2.475c0.349,0.775 0.81,1.443 1.383,2.006c0.573,0.562 1.233,1.006 1.981,1.331c0.748,0.325 1.558,0.488 2.43,0.488c1.321,0 2.461,-0.307 3.421,-0.919c0.959,-0.613 1.688,-1.319 2.187,-2.119l1.906,1.575c-1.047,1.325 -2.199,2.275 -3.458,2.85c-1.258,0.575 -2.61,0.863 -4.056,0.863c-1.296,0 -2.498,-0.232 -3.607,-0.694c-1.109,-0.463 -2.063,-1.106 -2.86,-1.931c-0.798,-0.825 -1.427,-1.8 -1.888,-2.925c-0.461,-1.125 -0.692,-2.35 -0.692,-3.675c0,-1.325 0.225,-2.55 0.673,-3.675c0.449,-1.125 1.072,-2.1 1.869,-2.925c0.798,-0.825 1.732,-1.469 2.804,-1.932c1.072,-0.462 2.231,-0.693 3.477,-0.693c1.321,0 2.504,0.237 3.551,0.712c1.047,0.475 1.925,1.106 2.636,1.894c0.71,0.787 1.252,1.712 1.626,2.775c0.374,1.062 0.561,2.194 0.561,3.394l0,1.125l-14.58,0Z" style="fill:#fff;fill-rule:nonzero;stroke:#fff;stroke-width:2.19px;stroke-linecap:butt;stroke-miterlimit:2;"/><path d="M66.327,11.894c0.05,0.475 0.081,0.943 0.093,1.406c0.013,0.462 0.019,0.931 0.019,1.406l0.075,0c0.274,-0.475 0.623,-0.912 1.046,-1.312c0.424,-0.4 0.898,-0.744 1.421,-1.032c0.523,-0.287 1.078,-0.512 1.664,-0.675c0.585,-0.162 1.165,-0.243 1.738,-0.243c2.243,0 3.9,0.593 4.972,1.781c1.071,1.187 1.607,2.881 1.607,5.081l0,11.138l-2.467,0l0,-9.713c0,-1.95 -0.336,-3.444 -1.009,-4.481c-0.673,-1.038 -1.919,-1.556 -3.739,-1.556c-0.124,0 -0.473,0.05 -1.046,0.15c-0.574,0.1 -1.178,0.375 -1.814,0.825c-0.635,0.45 -1.202,1.125 -1.7,2.025c-0.499,0.9 -0.748,2.15 -0.748,3.75l0,9l-2.467,0l0,-13.688c0,-0.475 -0.019,-1.075 -0.056,-1.8c-0.038,-0.725 -0.081,-1.412 -0.131,-2.062l2.542,0Z" style="fill:#fff;fill-rule:nonzero;stroke:#fff;stroke-width:2.19px;stroke-linecap:butt;stroke-miterlimit:2;"/><path d="M99.747,20.669c0,-0.975 -0.155,-1.888 -0.467,-2.738c-0.311,-0.85 -0.754,-1.587 -1.327,-2.212c-0.573,-0.625 -1.265,-1.119 -2.075,-1.482c-0.81,-0.362 -1.726,-0.543 -2.747,-0.543c-1.022,0 -1.938,0.181 -2.748,0.543c-0.81,0.363 -1.495,0.857 -2.056,1.482c-0.561,0.625 -0.997,1.362 -1.309,2.212c-0.311,0.85 -0.467,1.763 -0.467,2.738c0,0.975 0.156,1.887 0.467,2.737c0.312,0.85 0.748,1.588 1.309,2.213c0.561,0.625 1.246,1.118 2.056,1.481c0.81,0.362 1.726,0.544 2.748,0.544c1.021,0 1.937,-0.182 2.747,-0.544c0.81,-0.363 1.502,-0.856 2.075,-1.481c0.573,-0.625 1.016,-1.363 1.327,-2.213c0.312,-0.85 0.467,-1.762 0.467,-2.737Zm2.692,0c0,1.325 -0.231,2.55 -0.692,3.675c-0.461,1.125 -1.102,2.1 -1.925,2.925c-0.822,0.825 -1.8,1.468 -2.934,1.931c-1.134,0.462 -2.387,0.694 -3.757,0.694c-1.346,0 -2.586,-0.232 -3.72,-0.694c-1.134,-0.463 -2.112,-1.106 -2.935,-1.931c-0.822,-0.825 -1.464,-1.8 -1.925,-2.925c-0.461,-1.125 -0.692,-2.35 -0.692,-3.675c0,-1.325 0.231,-2.55 0.692,-3.675c0.461,-1.125 1.103,-2.1 1.925,-2.925c0.823,-0.825 1.801,-1.469 2.935,-1.932c1.134,-0.462 2.374,-0.693 3.72,-0.693c1.37,0 2.623,0.231 3.757,0.693c1.134,0.463 2.112,1.107 2.934,1.932c0.823,0.825 1.464,1.8 1.925,2.925c0.461,1.125 0.692,2.35 0.692,3.675Z" style="fill:#fff;fill-rule:nonzero;stroke:#fff;stroke-width:2.19px;stroke-linecap:butt;stroke-miterlimit:2;"/><path d="M114.626,29.444l-2.766,0l-7.103,-17.55l2.953,0l5.57,14.775l0.075,0l5.57,-14.775l2.804,0l-7.103,17.55Z" style="fill:#fff;fill-rule:nonzero;stroke:#fff;stroke-width:2.19px;stroke-linecap:butt;stroke-miterlimit:2;"/><path d="M134.888,20.706c-0.623,0 -1.402,0.031 -2.337,0.094c-0.934,0.062 -1.832,0.212 -2.691,0.45c-0.86,0.237 -1.595,0.606 -2.206,1.106c-0.611,0.5 -0.916,1.188 -0.916,2.063c0,0.575 0.118,1.068 0.355,1.481c0.237,0.412 0.555,0.75 0.954,1.012c0.398,0.263 0.841,0.45 1.327,0.563c0.486,0.112 0.978,0.169 1.476,0.169c0.897,0 1.676,-0.15 2.337,-0.45c0.66,-0.3 1.215,-0.707 1.663,-1.219c0.449,-0.513 0.779,-1.113 0.991,-1.8c0.212,-0.688 0.318,-1.419 0.318,-2.194l0,-1.275l-1.271,0Zm1.271,-2.025l0,-0.45c0,-3.025 -1.496,-4.537 -4.486,-4.537c-2.044,0 -3.826,0.687 -5.346,2.062l-1.495,-1.762c1.644,-1.7 4.112,-2.55 7.401,-2.55c0.848,0 1.664,0.125 2.449,0.375c0.785,0.25 1.464,0.631 2.037,1.143c0.574,0.513 1.035,1.157 1.384,1.932c0.349,0.775 0.523,1.7 0.523,2.775l0,7.837c0,0.675 0.031,1.381 0.093,2.119c0.063,0.737 0.131,1.344 0.206,1.819l-2.392,0c-0.075,-0.425 -0.131,-0.888 -0.169,-1.388c-0.037,-0.5 -0.056,-0.987 -0.056,-1.462l-0.075,0c-0.722,1.175 -1.576,2.018 -2.56,2.531c-0.985,0.512 -2.187,0.769 -3.608,0.769c-0.772,0 -1.52,-0.107 -2.243,-0.319c-0.723,-0.213 -1.364,-0.538 -1.925,-0.975c-0.561,-0.438 -1.009,-0.975 -1.346,-1.613c-0.336,-0.637 -0.504,-1.381 -0.504,-2.231c0,-1.425 0.367,-2.544 1.102,-3.356c0.736,-0.813 1.658,-1.419 2.767,-1.819c1.109,-0.4 2.293,-0.65 3.551,-0.75c1.259,-0.1 2.411,-0.15 3.458,-0.15l1.234,0Z" style="fill:#fff;fill-rule:nonzero;stroke:#fff;stroke-width:2.19px;stroke-linecap:butt;stroke-miterlimit:2;"/><path d="M160.308,20.669c0,-0.975 -0.155,-1.888 -0.467,-2.738c-0.312,-0.85 -0.754,-1.587 -1.327,-2.212c-0.573,-0.625 -1.265,-1.119 -2.075,-1.482c-0.81,-0.362 -1.726,-0.543 -2.748,-0.543c-1.021,0 -1.956,0.181 -2.803,0.543c-0.848,0.363 -1.583,0.857 -2.206,1.482c-0.623,0.625 -1.109,1.362 -1.458,2.212c-0.349,0.85 -0.523,1.763 -0.523,2.738c0,0.975 0.174,1.887 0.523,2.737c0.349,0.85 0.835,1.588 1.458,2.213c0.623,0.625 1.358,1.118 2.206,1.481c0.847,0.362 1.782,0.544 2.803,0.544c1.022,0 1.938,-0.182 2.748,-0.544c0.81,-0.363 1.502,-0.856 2.075,-1.481c0.573,-0.625 1.015,-1.363 1.327,-2.213c0.312,-0.85 0.467,-1.762 0.467,-2.737Zm-15.962,-8.775l2.467,0l0,2.925l0.075,0c0.398,-0.6 0.872,-1.113 1.42,-1.538c0.549,-0.425 1.122,-0.775 1.72,-1.05c0.598,-0.275 1.215,-0.475 1.85,-0.6c0.636,-0.125 1.24,-0.187 1.813,-0.187c1.371,0 2.624,0.231 3.757,0.693c1.134,0.463 2.113,1.107 2.935,1.932c0.822,0.825 1.464,1.8 1.925,2.925c0.461,1.125 0.692,2.35 0.692,3.675c0,1.325 -0.231,2.55 -0.692,3.675c-0.461,1.125 -1.103,2.1 -1.925,2.925c-0.822,0.825 -1.801,1.468 -2.935,1.931c-1.133,0.462 -2.386,0.694 -3.757,0.694c-0.573,0 -1.177,-0.063 -1.813,-0.188c-0.635,-0.125 -1.252,-0.325 -1.85,-0.6c-0.598,-0.275 -1.171,-0.625 -1.72,-1.05c-0.548,-0.425 -1.022,-0.937 -1.42,-1.537l-0.075,0l0,13.725l-2.467,0l0,-28.35Z" style="fill:#fff;fill-rule:nonzero;stroke:#fff;stroke-width:2.19px;stroke-linecap:butt;stroke-miterlimit:2;"/><path d="M183.149,20.669c0,-0.975 -0.155,-1.888 -0.467,-2.738c-0.311,-0.85 -0.754,-1.587 -1.327,-2.212c-0.573,-0.625 -1.265,-1.119 -2.075,-1.482c-0.81,-0.362 -1.726,-0.543 -2.747,-0.543c-1.022,0 -1.957,0.181 -2.804,0.543c-0.847,0.363 -1.583,0.857 -2.206,1.482c-0.623,0.625 -1.109,1.362 -1.458,2.212c-0.349,0.85 -0.523,1.763 -0.523,2.738c0,0.975 0.174,1.887 0.523,2.737c0.349,0.85 0.835,1.588 1.458,2.213c0.623,0.625 1.359,1.118 2.206,1.481c0.847,0.362 1.782,0.544 2.804,0.544c1.021,0 1.937,-0.182 2.747,-0.544c0.81,-0.363 1.502,-0.856 2.075,-1.481c0.573,-0.625 1.016,-1.363 1.327,-2.213c0.312,-0.85 0.467,-1.762 0.467,-2.737Zm-15.962,-8.775l2.467,0l0,2.925l0.075,0c0.399,-0.6 0.872,-1.113 1.42,-1.538c0.549,-0.425 1.122,-0.775 1.72,-1.05c0.598,-0.275 1.215,-0.475 1.851,-0.6c0.635,-0.125 1.239,-0.187 1.813,-0.187c1.37,0 2.623,0.231 3.757,0.693c1.134,0.463 2.112,1.107 2.934,1.932c0.823,0.825 1.464,1.8 1.925,2.925c0.462,1.125 0.692,2.35 0.692,3.675c0,1.325 -0.23,2.55 -0.692,3.675c-0.461,1.125 -1.102,2.1 -1.925,2.925c-0.822,0.825 -1.8,1.468 -2.934,1.931c-1.134,0.462 -2.387,0.694 -3.757,0.694c-0.574,0 -1.178,-0.063 -1.813,-0.188c-0.636,-0.125 -1.253,-0.325 -1.851,-0.6c-0.598,-0.275 -1.171,-0.625 -1.72,-1.05c-0.548,-0.425 -1.021,-0.937 -1.42,-1.537l-0.075,0l0,13.725l-2.467,0l0,-28.35Z" style="fill:#fff;fill-rule:nonzero;stroke:#fff;stroke-width:2.19px;stroke-linecap:butt;stroke-miterlimit:2;"/><path d="M199.299,16.056c-0.374,-0.725 -0.872,-1.3 -1.495,-1.725c-0.623,-0.425 -1.383,-0.637 -2.281,-0.637c-0.423,0 -0.853,0.05 -1.289,0.15c-0.437,0.1 -0.829,0.256 -1.178,0.468c-0.349,0.213 -0.629,0.482 -0.841,0.807c-0.212,0.325 -0.318,0.725 -0.318,1.2c0,0.825 0.287,1.425 0.86,1.8c0.573,0.375 1.433,0.7 2.579,0.975l2.505,0.6c1.221,0.275 2.237,0.831 3.047,1.668c0.81,0.838 1.215,1.882 1.215,3.132c0,0.95 -0.193,1.768 -0.58,2.456c-0.386,0.687 -0.897,1.25 -1.532,1.687c-0.636,0.438 -1.365,0.757 -2.187,0.957c-0.823,0.2 -1.658,0.3 -2.505,0.3c-1.346,0 -2.598,-0.257 -3.757,-0.769c-1.159,-0.513 -2.15,-1.394 -2.972,-2.644l2.131,-1.462c0.498,0.8 1.128,1.437 1.888,1.912c0.76,0.475 1.663,0.713 2.71,0.713c0.498,0 0.997,-0.057 1.495,-0.169c0.499,-0.113 0.941,-0.288 1.327,-0.525c0.387,-0.238 0.698,-0.544 0.935,-0.919c0.237,-0.375 0.355,-0.812 0.355,-1.312c0,-0.875 -0.324,-1.507 -0.972,-1.894c-0.648,-0.388 -1.433,-0.694 -2.355,-0.919l-2.392,-0.562c-0.3,-0.075 -0.705,-0.2 -1.215,-0.375c-0.511,-0.175 -1.01,-0.438 -1.496,-0.788c-0.486,-0.35 -0.903,-0.806 -1.252,-1.369c-0.349,-0.562 -0.523,-1.256 -0.523,-2.081c0,-0.9 0.18,-1.687 0.542,-2.362c0.361,-0.675 0.847,-1.225 1.458,-1.65c0.61,-0.425 1.302,-0.744 2.074,-0.957c0.773,-0.212 1.57,-0.318 2.393,-0.318c1.221,0 2.355,0.237 3.402,0.712c1.046,0.475 1.856,1.288 2.43,2.438l-2.206,1.462Z" style="fill:#fff;fill-rule:nonzero;stroke:#fff;stroke-width:2.19px;stroke-linecap:butt;stroke-miterlimit:2;"/></g><defs><linearGradient id="_Linear1" x1="0" y1="0" x2="1" y2="0" gradientUnits="userSpaceOnUse" gradientTransform="matrix(220.261,0,0,39.15,1.09375,20.6687)"><stop offset="0" style="stop-color:#d4a2dc;stop-opacity:1"/><stop offset="0.53" style="stop-color:#b2dcdf;stop-opacity:1"/><stop offset="1" style="stop-color:#96abf5;stop-opacity:1"/></linearGradient></defs></svg>